<mxfile host="app.diagrams.net" modified="2023-06-23T14:46:42.436Z" agent="Mozilla/5.0 (Windows NT 10.0; Win64; x64) AppleWebKit/537.36 (KHTML, like Gecko) Chrome/114.0.0.0 Safari/537.36 Edg/114.0.1823.51" etag="C43UArIq_8SrV7d6r2kx" version="21.5.0" type="github">
  <diagram name="Page-1" id="IsmIT9IAUyUmcHc43RJz">
    <mxGraphModel dx="1137" dy="711" grid="1" gridSize="10" guides="1" tooltips="1" connect="1" arrows="1" fold="1" page="1" pageScale="1" pageWidth="850" pageHeight="1100" math="0" shadow="0">
      <root>
        <mxCell id="0" />
        <mxCell id="1" parent="0" />
        <mxCell id="RDRN-LU8FH7rLDfwoTIn-2" style="edgeStyle=orthogonalEdgeStyle;rounded=0;orthogonalLoop=1;jettySize=auto;html=1;" edge="1" parent="1" source="RDRN-LU8FH7rLDfwoTIn-1" target="RDRN-LU8FH7rLDfwoTIn-3">
          <mxGeometry relative="1" as="geometry">
            <mxPoint x="240" y="240" as="targetPoint" />
            <Array as="points">
              <mxPoint x="220" y="240" />
              <mxPoint x="220" y="240" />
            </Array>
          </mxGeometry>
        </mxCell>
        <mxCell id="RDRN-LU8FH7rLDfwoTIn-1" value="Client" style="ellipse;whiteSpace=wrap;html=1;aspect=fixed;fillColor=#1ba1e2;fontColor=#ffffff;strokeColor=#006EAF;" vertex="1" parent="1">
          <mxGeometry x="40" y="200" width="80" height="80" as="geometry" />
        </mxCell>
        <mxCell id="RDRN-LU8FH7rLDfwoTIn-7" value="" style="group;fillColor=#fad9d5;strokeColor=#ae4132;container=0;movable=1;resizable=1;rotatable=1;deletable=1;editable=1;locked=0;connectable=1;" vertex="1" connectable="0" parent="1">
          <mxGeometry x="240" y="170" width="230" height="170" as="geometry" />
        </mxCell>
        <mxCell id="RDRN-LU8FH7rLDfwoTIn-8" value="Order Service" style="rounded=0;whiteSpace=wrap;html=1;fillColor=#d5e8d4;strokeColor=#82b366;" vertex="1" parent="1">
          <mxGeometry x="580" y="110" width="170" height="60" as="geometry" />
        </mxCell>
        <mxCell id="RDRN-LU8FH7rLDfwoTIn-9" value="Delivery Service" style="rounded=0;whiteSpace=wrap;html=1;fillColor=#60a917;strokeColor=#2D7600;fontColor=#ffffff;" vertex="1" parent="1">
          <mxGeometry x="580" y="220" width="170" height="60" as="geometry" />
        </mxCell>
        <mxCell id="RDRN-LU8FH7rLDfwoTIn-10" value="Billing Service" style="rounded=0;whiteSpace=wrap;html=1;fillColor=#f8cecc;strokeColor=#b85450;" vertex="1" parent="1">
          <mxGeometry x="580" y="333" width="170" height="60" as="geometry" />
        </mxCell>
        <mxCell id="RDRN-LU8FH7rLDfwoTIn-11" value="" style="endArrow=classic;html=1;rounded=0;entryX=0;entryY=0.5;entryDx=0;entryDy=0;" edge="1" parent="1">
          <mxGeometry width="50" height="50" relative="1" as="geometry">
            <mxPoint x="470" y="260" as="sourcePoint" />
            <mxPoint x="580" y="150" as="targetPoint" />
          </mxGeometry>
        </mxCell>
        <mxCell id="RDRN-LU8FH7rLDfwoTIn-12" value="" style="endArrow=classic;html=1;rounded=0;entryX=-0.014;entryY=0.633;entryDx=0;entryDy=0;entryPerimeter=0;" edge="1" parent="1" target="RDRN-LU8FH7rLDfwoTIn-9">
          <mxGeometry width="50" height="50" relative="1" as="geometry">
            <mxPoint x="470" y="260" as="sourcePoint" />
            <mxPoint x="580" y="150" as="targetPoint" />
          </mxGeometry>
        </mxCell>
        <mxCell id="RDRN-LU8FH7rLDfwoTIn-13" value="" style="endArrow=classic;html=1;rounded=0;entryX=0;entryY=0.5;entryDx=0;entryDy=0;" edge="1" parent="1" target="RDRN-LU8FH7rLDfwoTIn-10">
          <mxGeometry width="50" height="50" relative="1" as="geometry">
            <mxPoint x="470" y="260" as="sourcePoint" />
            <mxPoint x="600" y="160" as="targetPoint" />
          </mxGeometry>
        </mxCell>
        <mxCell id="RDRN-LU8FH7rLDfwoTIn-14" value="" style="html=1;verticalLabelPosition=bottom;align=center;labelBackgroundColor=#ffffff;verticalAlign=top;strokeWidth=2;strokeColor=#0080F0;shadow=0;dashed=0;shape=mxgraph.ios7.icons.mail;" vertex="1" parent="1">
          <mxGeometry x="150" y="210" width="30" height="16.5" as="geometry" />
        </mxCell>
        <mxCell id="RDRN-LU8FH7rLDfwoTIn-15" value="" style="html=1;verticalLabelPosition=bottom;align=center;labelBackgroundColor=#ffffff;verticalAlign=top;strokeWidth=2;strokeColor=#0080F0;shadow=0;dashed=0;shape=mxgraph.ios7.icons.mail;" vertex="1" parent="1">
          <mxGeometry x="500" y="323.5" width="30" height="16.5" as="geometry" />
        </mxCell>
        <mxCell id="RDRN-LU8FH7rLDfwoTIn-16" value="" style="html=1;verticalLabelPosition=bottom;align=center;labelBackgroundColor=#ffffff;verticalAlign=top;strokeWidth=2;strokeColor=#0080F0;shadow=0;dashed=0;shape=mxgraph.ios7.icons.mail;" vertex="1" parent="1">
          <mxGeometry x="520" y="236.5" width="30" height="16.5" as="geometry" />
        </mxCell>
        <mxCell id="RDRN-LU8FH7rLDfwoTIn-17" value="" style="html=1;verticalLabelPosition=bottom;align=center;labelBackgroundColor=#ffffff;verticalAlign=top;strokeWidth=2;strokeColor=#0080F0;shadow=0;dashed=0;shape=mxgraph.ios7.icons.mail;" vertex="1" parent="1">
          <mxGeometry x="500" y="183.5" width="30" height="16.5" as="geometry" />
        </mxCell>
        <mxCell id="RDRN-LU8FH7rLDfwoTIn-18" value="&lt;b&gt;New Order&lt;/b&gt;" style="text;html=1;align=center;verticalAlign=middle;resizable=0;points=[];autosize=1;strokeColor=none;fillColor=none;" vertex="1" parent="1">
          <mxGeometry x="125" y="176.75" width="80" height="30" as="geometry" />
        </mxCell>
        <mxCell id="RDRN-LU8FH7rLDfwoTIn-3" value="" style="rounded=0;whiteSpace=wrap;html=1;movable=1;resizable=1;rotatable=1;deletable=1;editable=1;locked=0;connectable=1;fillColor=#ffe6cc;strokeColor=#d79b00;" vertex="1" parent="1">
          <mxGeometry x="240" y="170" width="230" height="170" as="geometry" />
        </mxCell>
        <mxCell id="RDRN-LU8FH7rLDfwoTIn-4" value="" style="verticalLabelPosition=bottom;html=1;verticalAlign=top;align=center;strokeColor=none;fillColor=#00BEF2;shape=mxgraph.azure.queue_generic;pointerEvents=1;container=0;movable=1;resizable=1;rotatable=1;deletable=1;editable=1;locked=0;connectable=1;" vertex="1" parent="1">
          <mxGeometry x="250" y="187" width="210" height="40" as="geometry" />
        </mxCell>
        <mxCell id="RDRN-LU8FH7rLDfwoTIn-5" value="" style="verticalLabelPosition=bottom;html=1;verticalAlign=top;align=center;strokeColor=none;fillColor=#00BEF2;shape=mxgraph.azure.queue_generic;pointerEvents=1;container=0;movable=1;resizable=1;rotatable=1;deletable=1;editable=1;locked=0;connectable=1;" vertex="1" parent="1">
          <mxGeometry x="250" y="234" width="210" height="43" as="geometry" />
        </mxCell>
        <mxCell id="RDRN-LU8FH7rLDfwoTIn-6" value="" style="verticalLabelPosition=bottom;html=1;verticalAlign=top;align=center;strokeColor=none;fillColor=#00BEF2;shape=mxgraph.azure.queue_generic;pointerEvents=1;container=0;movable=1;resizable=1;rotatable=1;deletable=1;editable=1;locked=0;connectable=1;" vertex="1" parent="1">
          <mxGeometry x="250" y="284" width="210" height="42" as="geometry" />
        </mxCell>
      </root>
    </mxGraphModel>
  </diagram>
</mxfile>
